<svg width="78" height="78" viewBox="0 0 78 78" fill="none" xmlns="http://www.w3.org/2000/svg">
  <g clip-path="url(#clip0_3_7)">
    <path
      d="M48.75 16.25L58.5 26C60.4305 28.1515 60.4565 30.7873 59.4847 33.6765L61.75 39C68.2598 35.6752 71.5357 32.5162 73.9732 26.9165L65 19.5L55.25 9.75L48.75 16.25Z"
      stroke="#fff" stroke-width="8" stroke-miterlimit="10" stroke-linecap="round"/>
    <path d="M6.5 60.4045L49.7023 17.2023L54.2978 21.7977L6.5 69.5955V60.4045Z" fill="#fff"/>
    <path
      d="M29.25 16.25L19.5 26C17.5695 28.1515 17.5435 30.7873 18.5153 33.6765L16.25 39C9.74025 35.6752 6.46425 32.5162 4.02675 26.9165L13 19.5L22.75 9.75L29.25 16.25Z"
      stroke="#fff" stroke-width="8" stroke-miterlimit="10" stroke-linecap="round"/>
    <path opacity="0.3"
          d="M48.75 16.25L58.5 26C60.4305 28.1515 60.4565 30.7873 59.4847 33.6765L61.75 39C68.2598 35.6752 71.5357 32.5162 73.9732 26.9165L65 19.5L55.25 9.75L48.75 16.25Z"
          fill="#fff"/>
    <path opacity="0.3"
          d="M29.25 16.25L19.5 26C17.5695 28.1515 17.5435 30.7873 18.5153 33.6765L16.25 39C9.74025 35.6752 6.46425 32.5162 4.02675 26.9165L13 19.5L22.75 9.75L29.25 16.25Z"
          fill="#fff"/>
    <path d="M48.1924 58.5002L39.0002 49.3076L29.8076 58.4998L38.9998 67.6924L48.1924 58.5002Z" stroke="#fff"
          stroke-width="8" stroke-miterlimit="10" stroke-linecap="round"/>
    <path d="M28.2977 17.2004L23.7016 21.7967L37.6536 35.7482L42.2497 31.1519L28.2977 17.2004Z" fill="#fff"/>
    <path d="M46.8455 35.75L42.25 40.3455L71.5 69.5955V60.4045L46.8455 35.75Z" fill="#fff"/>
  </g>
  <defs>
    <clipPath id="clip0_3_7">
      <rect width="78" height="78" fill="white"/>
    </clipPath>
  </defs>
</svg>
